<?xml version="1.0" encoding="utf-8"?>
<!-- Generator: Adobe Illustrator 16.0.3, SVG Export Plug-In . SVG Version: 6.00 Build 0)  -->
<!DOCTYPE svg PUBLIC "-//W3C//DTD SVG 1.1//EN" "http://www.w3.org/Graphics/SVG/1.1/DTD/svg11.dtd">
<svg version="1.1" id="Ebene_1" xmlns="http://www.w3.org/2000/svg" xmlns:xlink="http://www.w3.org/1999/xlink" x="0px" y="0px"
	 width="64px" height="64px" viewBox="0 0 64 64" enable-background="new 0 0 64 64" xml:space="preserve">
<g>
	<path fill="#333333" d="M57.127,23.028L33.252,46.903l-4.485,4.486c-0.593,0.592-1.418,0.922-2.242,0.922
		c-0.825,0-1.649-0.33-2.243-0.922l-4.484-4.486L7.859,34.966c-0.593-0.594-0.923-1.418-0.923-2.242c0-0.825,0.33-1.649,0.923-2.243
		l4.485-4.485c0.593-0.593,1.418-0.923,2.242-0.923c0.825,0,1.649,0.33,2.243,0.923l9.695,9.728l21.634-21.666
		c0.593-0.593,1.417-0.923,2.241-0.923c0.825,0,1.649,0.33,2.243,0.923l4.484,4.485c0.593,0.593,0.923,1.418,0.923,2.243
		C58.05,21.61,57.72,22.435,57.127,23.028z"/>
</g>
</svg>
