<svg version="1.1" xmlns="http://www.w3.org/2000/svg" xmlns:xlink="http://www.w3.org/1999/xlink" xmlns:a="http://ns.adobe.com/AdobeSVGViewerExtensions/3.0/" x="0px" y="0px" width="64px" height="64px" viewBox="0 0 64 64" overflow="visible" enable-background="new 0 0 64 64" xml:space="preserve">
<defs>
</defs>
<path fill="#5599FF" d="M0,0h64v64H0V0z"/>
<path fill="#FFFFFF" d="M13,42h28c-0.15-5.52-2.64-6.85-2.64-6.85c-2.19-0.6-3.87-1.42-5.43-2.08c-0.03,0.42-0.19,0.87-0.61,1.29
	c-1.26,1.34-3.19,2.05-5.29,1.97c-4.28-0.17-6.35-2.97-6.35-2.97C16.17,33.36,13,37,13,42z"/>
<path fill="#FFFFFF" d="M33.22,19.06c0-2.8-2.49-5.06-5.44-5.06h-1.56c-2.8,0-5.44,2.26-5.44,5.06v3.89c0,1.64,1.27,3.67,2.72,5.1
	c-0.08,4.2-1.32,3.62-0.7,4.25c1.94,2.1,6.3,2.25,8.4,0c0.62-0.62-0.46-0.01-0.7-4.25c1.42-1.43,2.67-3.47,2.72-5.1V19.06z"/>
<path fill="#FFFFFF" stroke="#5599FF" stroke-width="2" stroke-miterlimit="10" d="M46.36,38.15c-2.19-0.6-3.87-2.42-5.43-3.08
	c-0.03,0.42-0.19,0.87-0.61,1.29c-1.26,1.34-3.19,1.97-5.29,1.97c-2.11,0-4.11-0.65-5.35-1.97c-0.43-0.44-0.58,0.09-0.59-0.35
	c-2.06,0.32-3.58,0.65-5.44,2.06c0,0-2.41,1.48-2.65,6.92h28C48.85,39.48,46.36,38.15,46.36,38.15z"/>
<path fill="#FFFFFF" stroke="#5599FF" stroke-width="2" stroke-miterlimit="10" d="M41.22,22.06c0-2.8-2.49-5.06-5.44-5.06h-1.55
	c-2.8,0-5.45,2.26-5.45,5.06v3.89c0,1.64,1.27,3.67,2.72,5.1c-0.08,4.2-2.7,6.25-2.7,6.25c2.2,1.63,9.3,2.25,11.4,0
	c0.62-0.62-1.46-2.01-1.7-6.25c1.42-1.43,2.67-3.47,2.72-5.1V22.06z"/>
<polygon fill="#FFFFFF" stroke="#5599FF" stroke-width="2" stroke-miterlimit="10" points="54,39 47,39 47,31 41,31 41,39 33,39 
	33,45 41,45 41,53 47,53 47,45 54,45 "/>
</svg>
