<?xml version="1.0" standalone="no"?>
<!DOCTYPE svg PUBLIC "-//W3C//DTD SVG 20010904//EN"
 "http://www.w3.org/TR/2001/REC-SVG-20010904/DTD/svg10.dtd">
<svg version="1.0" xmlns="http://www.w3.org/2000/svg"
 width="11.000000pt" height="12.000000pt" viewBox="0 0 11.000000 12.000000"
 preserveAspectRatio="xMidYMid meet">

<g transform="translate(0.000000,12.000000) scale(0.100000,-0.100000)"
fill="#000000" stroke="none">
<path d="M12 98 c-17 -17 -15 -63 2 -78 23 -18 61 -8 64 18 3 17 -1 22 -20 21
-13 0 -17 -3 -10 -6 19 -7 15 -35 -5 -31 -13 2 -18 13 -18 38 0 32 2 35 28 33
15 -1 25 2 22 8 -9 13 -49 11 -63 -3z"/>
</g>
</svg>
